<svg width="48" height="48" viewBox="0 0 48 48" fill="none" xmlns="http://www.w3.org/2000/svg">
<rect width="48" height="48" rx="10" fill="#FCEFEA"/>
<path d="M21.0093 3.32521C20.7906 3.4109 20.6084 3.69911 20.6084 3.95617C20.6084 4.23659 20.8544 4.46249 21.3829 4.67281C22.3214 5.0545 22.7223 5.68545 22.4763 6.3943C22.1847 7.22778 21.1551 7.91326 18.5491 9.01938C16.6903 9.81391 16.0525 10.2579 15.5787 11.0836C15.2962 11.5666 15.278 11.66 15.278 12.3845C15.278 13.1868 15.3964 13.5685 15.8702 14.363L16.0434 14.6668L15.3691 14.9472C14.4761 15.3056 13.7836 15.8664 13.4465 16.4974C13.2278 16.918 13.1914 17.0738 13.2005 17.6814C13.2005 18.4915 13.3736 19.0523 13.7836 19.6521C14.0479 20.0572 14.0661 20.1039 14.0752 21.101C14.0934 22.0825 14.1025 22.1448 14.385 22.6277C14.7404 23.2509 15.3053 23.7261 16.0525 24.061L16.6356 24.3103L19.3418 32.9567C22.3578 42.5612 22.2941 42.3665 22.5401 42.6703C22.9501 43.1688 24.1164 43.3635 24.7998 43.0442C25.5287 42.717 25.383 43.0909 28.4354 33.3462C29.9935 28.3842 31.2874 24.2947 31.3147 24.2635C31.3421 24.2246 31.4788 24.1779 31.6154 24.1467C32.3535 24.0065 33.4834 22.9861 33.7476 22.2149C33.8114 22.0357 33.8661 21.4749 33.8661 20.9763C33.8843 20.1195 33.8934 20.0416 34.1303 19.7612C34.7499 18.9978 34.9412 18.0631 34.6952 17.0193C34.349 15.5782 33.538 14.7992 31.9708 14.4098C31.6883 14.3396 31.4514 14.2695 31.4514 14.254C31.4514 14.2384 31.497 14.1293 31.5517 14.0047C32.0437 12.9453 32.0072 11.8626 31.4514 10.8889C30.9685 10.0476 29.9844 9.54907 28.6541 9.47896C27.8067 9.44002 27.7156 9.3777 27.9252 9.01938C28.1529 8.64548 28.4445 7.50821 28.4445 7.00188C28.4445 5.01555 27.096 3.77701 24.4627 3.34858C23.6517 3.21616 21.31 3.20058 21.0093 3.32521ZM24.654 4.6806C26.1666 4.99218 26.9866 5.81787 26.9866 7.01746C26.9866 7.516 26.6313 8.48969 26.2577 9.05054C25.9023 9.58023 24.9638 10.4293 24.4627 10.6863C23.834 10.9979 23.6973 11.4108 24.1164 11.7613C24.5447 12.1352 25.1461 11.9483 26.1757 11.1226L26.8135 10.6084L27.9798 10.6863C29.4286 10.7876 29.8113 10.9356 30.1667 11.5276C30.358 11.8392 30.4036 12.0184 30.4036 12.5013C30.3945 13.3737 30.1484 13.7632 28.9275 14.8538C28.3807 15.3367 27.9069 15.7963 27.8705 15.8664C27.7885 16.0533 27.9707 16.4584 28.1712 16.5519C28.5356 16.7155 28.891 16.6376 29.3284 16.2948C29.5653 16.1157 29.8751 15.8508 30.03 15.7028C30.2942 15.4536 30.3216 15.4458 30.8136 15.4925C31.8888 15.6016 32.6542 15.9677 32.9913 16.5363C33.1736 16.8479 33.3649 17.5256 33.3649 17.8683C33.3649 18.3045 33.0915 18.8654 32.7271 19.1925L32.3626 19.5119H26.4673H20.5719L20.3624 19.6833C20.1437 19.8624 20.089 20.1974 20.2439 20.4467C20.4261 20.7427 20.7268 20.7582 26.6768 20.7582H32.4537V21.0932C32.4537 21.9033 32.0072 22.5732 31.2419 22.9004L30.7771 23.0951H24.0435C19.196 23.0951 17.2006 23.0717 16.9545 23.0016C16.4807 22.8848 15.8885 22.433 15.6789 22.0513C15.5695 21.8488 15.5058 21.545 15.5058 21.2412V20.7582H16.6265C17.8384 20.7582 18.1208 20.6881 18.3031 20.3532C18.4489 20.1117 18.3122 19.7067 18.0571 19.5898C17.9659 19.5431 17.3555 19.5119 16.7085 19.5119H15.524L15.2871 19.2704C14.9226 18.9043 14.795 18.6473 14.6948 18.1176C14.4852 17.0037 15.1595 16.2169 16.6083 15.8898L17.0183 15.7963L17.4921 16.2403C17.9933 16.7233 18.2575 16.8167 18.6767 16.6687C19.2325 16.4662 19.2052 16.0066 18.5947 15.4068C16.9545 13.81 16.4169 12.6961 16.827 11.7691C17.0912 11.1849 17.7108 10.772 19.2963 10.1255C22.3761 8.86359 23.8248 7.69516 24.0253 6.29304C24.0891 5.86461 23.8977 5.04671 23.6608 4.73512C23.5879 4.64165 23.5242 4.54039 23.5242 4.52481C23.5242 4.47028 23.9251 4.5326 24.654 4.6806ZM20.8635 24.949C22.8499 26.0863 25.3283 27.2236 27.3511 27.9246C27.8796 28.1116 28.3443 28.2907 28.3899 28.3219C28.4992 28.4076 27.7976 30.651 27.6609 30.651C27.4696 30.651 25.2372 29.8253 24.0253 29.3112C22.449 28.6413 21.3373 28.1038 20.007 27.3638C18.9318 26.7718 18.9045 26.7484 18.8042 26.3901C18.7496 26.1798 18.5764 25.6423 18.4307 25.1749L18.1664 24.3414H18.9774H19.7974L20.8635 24.949ZM29.7202 24.3804C29.7202 24.4583 28.891 27.021 28.8546 27.0522C28.6905 27.2002 23.9615 25.2061 22.6585 24.4427C22.5127 24.357 23.0412 24.3414 26.1028 24.3414C28.0892 24.3414 29.7202 24.357 29.7202 24.3804ZM20.7815 29.2644C22.0663 29.9188 24.7269 31.0405 26.2121 31.5468C26.8135 31.7571 27.3147 31.9285 27.3329 31.9363C27.342 31.944 27.1871 32.4971 26.9775 33.1592L26.5948 34.3744L26.2941 34.2653C25.6199 34.0239 25.0732 34.2575 25.0732 34.7794C25.0732 35.1144 25.3101 35.3247 25.8568 35.4805C26.0299 35.5272 26.1666 35.6129 26.1666 35.6597C26.1666 35.7687 25.465 37.9732 25.4194 38.0121C25.4012 38.0355 24.0709 37.5915 22.2941 36.9605C22.1392 36.9138 22.0116 36.61 21.6289 35.3637C21.3647 34.5224 21.1642 33.8135 21.1915 33.7902C21.2189 33.7668 21.556 33.8759 21.9387 34.0316C22.3214 34.1874 22.7314 34.3121 22.8499 34.3121C23.351 34.3121 23.7064 33.6967 23.4057 33.3384C23.3328 33.2605 22.6676 32.9333 21.9296 32.6062L20.5719 32.0141L20.0434 30.3394C19.4329 28.4076 19.4876 28.6023 19.6243 28.6724C19.679 28.7036 20.1983 28.9684 20.7815 29.2644ZM24.7816 39.165C24.982 39.2195 25.064 39.2818 25.0276 39.3675C25.0094 39.4376 24.8271 40.0062 24.6267 40.645C24.4262 41.2759 24.2349 41.829 24.2075 41.8679C24.1802 41.9147 24.0526 41.9458 23.9342 41.9458C23.7702 41.9458 23.6973 41.8835 23.6244 41.6888C23.5242 41.4317 22.613 38.534 22.613 38.4795C22.613 38.4639 23.0321 38.5963 23.5515 38.7677C24.0617 38.9391 24.6176 39.1182 24.7816 39.165Z" fill="#2D3691"/>
</svg>
