<svg width="138" height="50" viewBox="0 0 138 50" fill="none" xmlns="http://www.w3.org/2000/svg">
<path d="M8.18717 0.295799C7.95793 0.402119 7.7669 0.759727 7.7669 1.07868C7.7669 1.42662 8.02479 1.70691 8.5788 1.96787C9.56263 2.44146 9.9829 3.22434 9.72501 4.10387C9.41935 5.13804 8.34 5.98858 5.6082 7.36103C3.65964 8.34687 2.99102 8.89779 2.49432 9.92229C2.19822 10.5215 2.17912 10.6375 2.17912 11.5364C2.17912 12.5319 2.30329 13.0055 2.79998 13.9913L2.98146 14.3683L2.27463 14.7162C1.33856 15.1608 0.612627 15.8567 0.259212 16.6396C0.0299698 17.1615 -0.00823725 17.3548 0.00131451 18.1087C0.00131451 19.1139 0.182798 19.8097 0.612627 20.554C0.889628 21.0566 0.908732 21.1145 0.918283 22.3517C0.937387 23.5695 0.946939 23.6468 1.24304 24.2461C1.61556 25.0193 2.20777 25.6088 2.99102 26.0244L3.60233 26.3337L6.4392 37.062C9.60083 48.9792 9.53397 48.7376 9.79187 49.1145C10.2217 49.7331 11.4443 49.9747 12.1607 49.5784C12.9248 49.1725 12.772 49.6364 15.9719 37.5453C17.6052 31.3886 18.9616 26.3144 18.9902 26.2757C19.0189 26.2274 19.1621 26.1694 19.3054 26.1308C20.0791 25.9568 21.2635 24.6907 21.5405 23.7338C21.6074 23.5115 21.6647 22.8156 21.6647 22.197C21.6838 21.1339 21.6934 21.0372 21.9417 20.6893C22.5912 19.7421 22.7918 18.5823 22.5339 17.2871C22.1709 15.4991 21.3208 14.5326 19.6779 14.0493C19.3818 13.9623 19.1335 13.8753 19.1335 13.856C19.1335 13.8367 19.1812 13.7014 19.2386 13.5467C19.7544 12.2323 19.7161 10.8888 19.1335 9.68067C18.6272 8.63683 17.5957 8.01826 16.2011 7.93127C15.3128 7.88295 15.2173 7.80563 15.437 7.36103C15.6758 6.8971 15.9814 5.48599 15.9814 4.85775C15.9814 2.39314 14.5677 0.85638 11.8073 0.324795C10.9572 0.160488 8.50238 0.141159 8.18717 0.295799ZM12.0079 1.97754C13.5935 2.36414 14.4531 3.38865 14.4531 4.87708C14.4531 5.49566 14.0806 6.7038 13.689 7.39969C13.3165 8.05692 12.3326 9.11042 11.8073 9.42937C11.1482 9.81598 11.0049 10.3282 11.4443 10.7632C11.8933 11.2271 12.5237 10.9951 13.603 9.97062L14.2716 9.33272L15.4943 9.42937C17.013 9.55502 17.4142 9.73866 17.7867 10.4732C17.9873 10.8598 18.035 11.0821 18.035 11.6814C18.0255 12.7639 17.7676 13.2471 16.4877 14.6002C15.9145 15.1995 15.4179 15.7697 15.3796 15.8567C15.2937 16.0887 15.4847 16.5913 15.6949 16.7072C16.0769 16.9102 16.4494 16.8135 16.9079 16.3883C17.1563 16.166 17.481 15.8374 17.6434 15.6537C17.9204 15.3444 17.9491 15.3348 18.4649 15.3928C19.592 15.5281 20.3943 15.9823 20.7477 16.6879C20.9388 17.0745 21.1394 17.9154 21.1394 18.3406C21.1394 18.8819 20.8528 19.5778 20.4707 19.9837L20.0887 20.38H13.9087H7.72869L7.509 20.5926C7.27976 20.8149 7.22245 21.2305 7.38482 21.5398C7.57586 21.9071 7.89107 21.9264 14.1284 21.9264H20.1842V22.342C20.1842 23.3472 19.7161 24.1784 18.9138 24.5843L18.4267 24.826H11.3679C6.28637 24.826 4.19454 24.797 3.93664 24.71C3.43995 24.565 2.81908 24.0044 2.59939 23.5308C2.48477 23.2795 2.41791 22.9026 2.41791 22.5257V21.9264H3.59278C4.86316 21.9264 5.15927 21.8394 5.3503 21.4238C5.50313 21.1242 5.35985 20.6216 5.0924 20.4766C4.99688 20.4187 4.35692 20.38 3.67874 20.38H2.43701L2.18867 20.0804C1.8066 19.6261 1.67287 19.3072 1.5678 18.6499C1.34811 17.2678 2.05494 16.2916 3.57367 15.8857L4.0035 15.7697L4.50019 16.3206C5.02554 16.9199 5.30254 17.0359 5.74192 16.8522C6.32458 16.6009 6.29592 16.0307 5.65596 15.2865C3.93664 13.3051 3.37309 11.923 3.80292 10.7728C4.07992 10.0479 4.72944 9.53569 6.39144 8.73348C9.61994 7.16772 11.1387 5.71795 11.3488 3.97823C11.4157 3.44664 11.2151 2.4318 10.9667 2.04519C10.8903 1.92921 10.8235 1.80357 10.8235 1.78423C10.8235 1.71658 11.2437 1.7939 12.0079 1.97754ZM8.03434 27.1263C10.1166 28.5374 12.7147 29.9485 14.8352 30.8184C15.3892 31.0503 15.8763 31.2726 15.9241 31.3113C16.0387 31.4176 15.3032 34.2012 15.16 34.2012C14.9594 34.2012 12.6192 33.1767 11.3488 32.5388C9.69635 31.7076 8.53104 31.0407 7.13648 30.1225C6.00937 29.3879 5.98072 29.3589 5.87565 28.9143C5.81834 28.6534 5.63685 27.9865 5.48403 27.4066L5.20702 26.3724H6.05713H6.91679L8.03434 27.1263ZM17.3187 26.4207C17.3187 26.5174 16.4494 29.6972 16.4112 29.7359C16.2393 29.9195 11.2819 27.4452 9.91604 26.498C9.76321 26.3917 10.3172 26.3724 13.5266 26.3724C15.6089 26.3724 17.3187 26.3917 17.3187 26.4207ZM7.94838 32.4808C9.29518 33.2926 12.0843 34.6844 13.6412 35.3127C14.2716 35.5736 14.797 35.7862 14.8161 35.7959C14.8256 35.8056 14.6633 36.4918 14.4436 37.3133L14.0424 38.8211L13.7272 38.6858C13.0204 38.3862 12.4473 38.6761 12.4473 39.3237C12.4473 39.7393 12.6956 40.0003 13.2687 40.1936C13.4502 40.2516 13.5935 40.3579 13.5935 40.4159C13.5935 40.5512 12.858 43.2864 12.8102 43.3347C12.7911 43.3637 11.3966 42.8128 9.53397 42.0299C9.37159 41.9719 9.23787 41.595 8.83669 40.0486C8.55969 39.0047 8.34955 38.1252 8.37821 38.0962C8.40686 38.0672 8.76028 38.2025 9.16145 38.3958C9.56263 38.5891 9.99245 38.7438 10.1166 38.7438C10.642 38.7438 11.0145 37.9802 10.6993 37.5356C10.6229 37.439 9.92559 37.0331 9.1519 36.6271L7.72869 35.8926L7.17469 33.8146C6.53472 31.4176 6.59203 31.6592 6.73531 31.7462C6.79262 31.7849 7.33707 32.1135 7.94838 32.4808ZM12.1416 44.7652C12.3517 44.8328 12.4377 44.9102 12.3995 45.0165C12.3804 45.1035 12.1894 45.809 11.9792 46.6016C11.7691 47.3844 11.5685 48.0707 11.5398 48.119C11.5112 48.177 11.3775 48.2156 11.2533 48.2156C11.0814 48.2156 11.0049 48.1383 10.9285 47.8967C10.8235 47.5777 9.86828 43.9823 9.86828 43.9146C9.86828 43.8953 10.3077 44.0596 10.8521 44.2723C11.387 44.4849 11.9697 44.7072 12.1416 44.7652Z" fill="#2D3691"/>
<path d="M45.24 22.2001C44.8667 22.2001 44.5933 22.1401 44.42 22.0201C44.2467 21.9135 44.14 21.7668 44.1 21.5801C44.06 21.3935 44.04 21.1868 44.04 20.9601V9.42012C44.04 9.20679 44.06 9.00679 44.1 8.82012C44.1533 8.63345 44.26 8.48679 44.42 8.38012C44.5933 8.27345 44.8733 8.22012 45.26 8.22012C45.6333 8.22012 45.9 8.27345 46.06 8.38012C46.2333 8.48679 46.34 8.63345 46.38 8.82012C46.4333 9.00679 46.46 9.21345 46.46 9.44012V20.9801C46.46 21.2068 46.4333 21.4135 46.38 21.6001C46.34 21.7735 46.2333 21.9135 46.06 22.0201C45.8867 22.1401 45.6133 22.2001 45.24 22.2001ZM53.4625 22.2401C52.8225 22.2401 52.1958 22.1335 51.5825 21.9201C50.9825 21.6935 50.4358 21.3668 49.9425 20.9401C49.4625 20.5135 49.0758 19.9935 48.7825 19.3801C48.5025 18.7535 48.3625 18.0468 48.3625 17.2601C48.3625 16.4735 48.5025 15.7735 48.7825 15.1601C49.0758 14.5468 49.4625 14.0268 49.9425 13.6001C50.4225 13.1735 50.9625 12.8468 51.5625 12.6201C52.1625 12.3935 52.7825 12.2801 53.4225 12.2801C53.8892 12.2801 54.3292 12.3468 54.7425 12.4801C55.1692 12.6135 55.5358 12.7735 55.8425 12.9601C56.1492 13.1468 56.3692 13.3335 56.5025 13.5201C56.6758 13.6801 56.8225 13.8335 56.9425 13.9801C57.0625 14.1268 57.1025 14.3068 57.0625 14.5201C57.0225 14.6535 56.9625 14.7801 56.8825 14.9001C56.8025 15.0068 56.7025 15.1201 56.5825 15.2401C56.2625 15.6001 55.9492 15.7335 55.6425 15.6401C55.4692 15.5468 55.2958 15.4468 55.1225 15.3401C54.9492 15.2335 54.7692 15.1335 54.5825 15.0401C54.4092 14.9335 54.2292 14.8468 54.0425 14.7801C53.8558 14.7135 53.6492 14.6801 53.4225 14.6801C52.9158 14.6801 52.4625 14.7935 52.0625 15.0201C51.6758 15.2335 51.3692 15.5335 51.1425 15.9201C50.9292 16.3068 50.8225 16.7535 50.8225 17.2601C50.8225 17.7668 50.9292 18.2201 51.1425 18.6201C51.3692 19.0068 51.6758 19.3135 52.0625 19.5401C52.4492 19.7535 52.8892 19.8601 53.3825 19.8601C53.6225 19.8601 53.8492 19.8335 54.0625 19.7801C54.2892 19.7135 54.4892 19.6335 54.6625 19.5401C54.8358 19.4335 54.9758 19.3268 55.0825 19.2201C55.2292 19.1268 55.3625 19.0401 55.4825 18.9601C55.6025 18.8801 55.7292 18.8401 55.8625 18.8401C56.0225 18.8401 56.1758 18.9001 56.3225 19.0201C56.4825 19.1268 56.6558 19.3001 56.8425 19.5401C57.0158 19.7401 57.1092 19.9335 57.1225 20.1201C57.1492 20.3068 57.1092 20.4868 57.0025 20.6601C56.9092 20.8335 56.7492 20.9935 56.5225 21.1401C56.3625 21.3001 56.1225 21.4668 55.8025 21.6401C55.4958 21.8001 55.1358 21.9401 54.7225 22.0601C54.3225 22.1801 53.9025 22.2401 53.4625 22.2401ZM64.1992 22.3201C63.3326 22.3201 62.5726 22.1801 61.9192 21.9001C61.2792 21.6201 60.7392 21.2401 60.2992 20.7601C59.8726 20.2668 59.5459 19.7201 59.3192 19.1201C59.1059 18.5068 58.9992 17.8735 58.9992 17.2201C58.9992 16.2601 59.2192 15.4068 59.6592 14.6601C60.0992 13.9135 60.7059 13.3268 61.4792 12.9001C62.2659 12.4735 63.1659 12.2601 64.1792 12.2601C64.8992 12.2601 65.5326 12.3735 66.0792 12.6001C66.6259 12.8268 67.0792 13.1268 67.4392 13.5001C67.8126 13.8601 68.0926 14.2601 68.2792 14.7001C68.4792 15.1401 68.5792 15.5668 68.5792 15.9801C68.5792 16.6868 68.4059 17.2001 68.0592 17.5201C67.7259 17.8401 67.3059 18.0001 66.7992 18.0001H61.5192C61.5326 18.4535 61.6726 18.8468 61.9392 19.1801C62.2192 19.5135 62.5659 19.7735 62.9792 19.9601C63.4059 20.1335 63.8392 20.2201 64.2792 20.2201C64.6126 20.2201 64.9059 20.2001 65.1592 20.1601C65.4259 20.1201 65.6526 20.0735 65.8392 20.0201C66.0259 19.9535 66.1859 19.8868 66.3192 19.8201C66.4659 19.7535 66.5992 19.6935 66.7192 19.6401C66.8392 19.5868 66.9526 19.5535 67.0592 19.5401C67.2059 19.5268 67.3526 19.5601 67.4992 19.6401C67.6459 19.7201 67.7659 19.8601 67.8592 20.0601C67.9392 20.1935 67.9926 20.3201 68.0192 20.4401C68.0592 20.5468 68.0792 20.6535 68.0792 20.7601C68.0792 21.0268 67.9192 21.2801 67.5992 21.5201C67.2792 21.7468 66.8259 21.9335 66.2392 22.0801C65.6659 22.2401 64.9859 22.3201 64.1992 22.3201ZM61.5192 16.5801H65.6192C65.8459 16.5801 66.0192 16.5468 66.1392 16.4801C66.2592 16.4001 66.3192 16.2401 66.3192 16.0001C66.3192 15.6935 66.2259 15.4201 66.0392 15.1801C65.8526 14.9268 65.5992 14.7335 65.2792 14.6001C64.9592 14.4535 64.5859 14.3801 64.1592 14.3801C63.6659 14.3801 63.2192 14.4801 62.8192 14.6801C62.4192 14.8668 62.0992 15.1268 61.8592 15.4601C61.6326 15.7935 61.5192 16.1668 61.5192 16.5801ZM71.0405 18.0001C70.8671 18.0001 70.6938 17.9801 70.5205 17.9401C70.3605 17.9001 70.2271 17.8001 70.1205 17.6401C70.0271 17.4801 69.9805 17.2201 69.9805 16.8601C69.9805 16.5135 70.0271 16.2668 70.1205 16.1201C70.2271 15.9601 70.3605 15.8601 70.5205 15.8201C70.6938 15.7668 70.8605 15.7401 71.0205 15.7401H76.0005C76.1738 15.7401 76.3405 15.7668 76.5005 15.8201C76.6605 15.8601 76.7871 15.9601 76.8805 16.1201C76.9871 16.2668 77.0405 16.5201 77.0405 16.8801C77.0405 17.2268 76.9871 17.4801 76.8805 17.6401C76.7871 17.8001 76.6605 17.9001 76.5005 17.9401C76.3405 17.9801 76.1671 18.0001 75.9805 18.0001H71.0405ZM84.1297 22.2401C83.4897 22.2401 82.863 22.1335 82.2497 21.9201C81.6497 21.6935 81.103 21.3668 80.6097 20.9401C80.1297 20.5135 79.743 19.9935 79.4497 19.3801C79.1697 18.7535 79.0297 18.0468 79.0297 17.2601C79.0297 16.4735 79.1697 15.7735 79.4497 15.1601C79.743 14.5468 80.1297 14.0268 80.6097 13.6001C81.0897 13.1735 81.6297 12.8468 82.2297 12.6201C82.8297 12.3935 83.4497 12.2801 84.0897 12.2801C84.5564 12.2801 84.9964 12.3468 85.4097 12.4801C85.8364 12.6135 86.203 12.7735 86.5097 12.9601C86.8164 13.1468 87.0364 13.3335 87.1697 13.5201C87.343 13.6801 87.4897 13.8335 87.6097 13.9801C87.7297 14.1268 87.7697 14.3068 87.7297 14.5201C87.6897 14.6535 87.6297 14.7801 87.5497 14.9001C87.4697 15.0068 87.3697 15.1201 87.2497 15.2401C86.9297 15.6001 86.6164 15.7335 86.3097 15.6401C86.1364 15.5468 85.963 15.4468 85.7897 15.3401C85.6164 15.2335 85.4364 15.1335 85.2497 15.0401C85.0764 14.9335 84.8964 14.8468 84.7097 14.7801C84.523 14.7135 84.3164 14.6801 84.0897 14.6801C83.583 14.6801 83.1297 14.7935 82.7297 15.0201C82.343 15.2335 82.0364 15.5335 81.8097 15.9201C81.5964 16.3068 81.4897 16.7535 81.4897 17.2601C81.4897 17.7668 81.5964 18.2201 81.8097 18.6201C82.0364 19.0068 82.343 19.3135 82.7297 19.5401C83.1164 19.7535 83.5564 19.8601 84.0497 19.8601C84.2897 19.8601 84.5164 19.8335 84.7297 19.7801C84.9564 19.7135 85.1564 19.6335 85.3297 19.5401C85.503 19.4335 85.643 19.3268 85.7497 19.2201C85.8964 19.1268 86.0297 19.0401 86.1497 18.9601C86.2697 18.8801 86.3964 18.8401 86.5297 18.8401C86.6897 18.8401 86.843 18.9001 86.9897 19.0201C87.1497 19.1268 87.323 19.3001 87.5097 19.5401C87.683 19.7401 87.7764 19.9335 87.7897 20.1201C87.8164 20.3068 87.7764 20.4868 87.6697 20.6601C87.5764 20.8335 87.4164 20.9935 87.1897 21.1401C87.0297 21.3001 86.7897 21.4668 86.4697 21.6401C86.163 21.8001 85.803 21.9401 85.3897 22.0601C84.9897 22.1801 84.5697 22.2401 84.1297 22.2401ZM91.2864 22.2001C90.9264 22.2001 90.6597 22.1401 90.4864 22.0201C90.3264 21.9135 90.2264 21.7668 90.1864 21.5801C90.1464 21.3935 90.1264 21.1868 90.1264 20.9601V13.5401C90.1264 13.3001 90.1464 13.0935 90.1864 12.9201C90.2264 12.7335 90.3264 12.5935 90.4864 12.5001C90.6597 12.3935 90.9331 12.3401 91.3064 12.3401C91.6664 12.3401 91.9264 12.3868 92.0864 12.4801C92.2597 12.5735 92.3664 12.6935 92.4064 12.8401C92.4597 12.9735 92.4864 13.1068 92.4864 13.2401L92.3264 13.6001C92.3931 13.4935 92.4864 13.3668 92.6064 13.2201C92.7264 13.0601 92.8864 12.9068 93.0864 12.7601C93.2864 12.6001 93.5264 12.4735 93.8064 12.3801C94.0864 12.2735 94.4197 12.2201 94.8064 12.2201C94.9664 12.2201 95.1331 12.2401 95.3064 12.2801C95.4931 12.3068 95.6731 12.3535 95.8464 12.4201C96.0331 12.4735 96.1997 12.5468 96.3464 12.6401C96.4931 12.7335 96.6064 12.8468 96.6864 12.9801C96.7664 13.1001 96.8064 13.2401 96.8064 13.4001C96.8064 13.8268 96.6997 14.1868 96.4864 14.4801C96.2731 14.7735 96.0197 14.9201 95.7264 14.9201C95.5264 14.9201 95.3797 14.9001 95.2864 14.8601C95.1931 14.8201 95.1131 14.7735 95.0464 14.7201C94.9931 14.6668 94.9064 14.6201 94.7864 14.5801C94.6797 14.5401 94.5064 14.5201 94.2664 14.5201C94.0664 14.5201 93.8597 14.5535 93.6464 14.6201C93.4464 14.6868 93.2597 14.7868 93.0864 14.9201C92.9131 15.0535 92.7731 15.2268 92.6664 15.4401C92.5597 15.6401 92.5064 15.8735 92.5064 16.1401V21.0001C92.5064 21.2268 92.4864 21.4335 92.4464 21.6201C92.4064 21.7935 92.2997 21.9335 92.1264 22.0401C91.9531 22.1468 91.6731 22.2001 91.2864 22.2001ZM103.162 22.3201C102.295 22.3201 101.535 22.1801 100.882 21.9001C100.242 21.6201 99.7017 21.2401 99.2617 20.7601C98.8351 20.2668 98.5084 19.7201 98.2817 19.1201C98.0684 18.5068 97.9617 17.8735 97.9617 17.2201C97.9617 16.2601 98.1817 15.4068 98.6217 14.6601C99.0617 13.9135 99.6684 13.3268 100.442 12.9001C101.228 12.4735 102.128 12.2601 103.142 12.2601C103.862 12.2601 104.495 12.3735 105.042 12.6001C105.588 12.8268 106.042 13.1268 106.402 13.5001C106.775 13.8601 107.055 14.2601 107.242 14.7001C107.442 15.1401 107.542 15.5668 107.542 15.9801C107.542 16.6868 107.368 17.2001 107.022 17.5201C106.688 17.8401 106.268 18.0001 105.762 18.0001H100.482C100.495 18.4535 100.635 18.8468 100.902 19.1801C101.182 19.5135 101.528 19.7735 101.942 19.9601C102.368 20.1335 102.802 20.2201 103.242 20.2201C103.575 20.2201 103.868 20.2001 104.122 20.1601C104.388 20.1201 104.615 20.0735 104.802 20.0201C104.988 19.9535 105.148 19.8868 105.282 19.8201C105.428 19.7535 105.562 19.6935 105.682 19.6401C105.802 19.5868 105.915 19.5535 106.022 19.5401C106.168 19.5268 106.315 19.5601 106.462 19.6401C106.608 19.7201 106.728 19.8601 106.822 20.0601C106.902 20.1935 106.955 20.3201 106.982 20.4401C107.022 20.5468 107.042 20.6535 107.042 20.7601C107.042 21.0268 106.882 21.2801 106.562 21.5201C106.242 21.7468 105.788 21.9335 105.202 22.0801C104.628 22.2401 103.948 22.3201 103.162 22.3201ZM100.482 16.5801H104.582C104.808 16.5801 104.982 16.5468 105.102 16.4801C105.222 16.4001 105.282 16.2401 105.282 16.0001C105.282 15.6935 105.188 15.4201 105.002 15.1801C104.815 14.9268 104.562 14.7335 104.242 14.6001C103.922 14.4535 103.548 14.3801 103.122 14.3801C102.628 14.3801 102.182 14.4801 101.782 14.6801C101.382 14.8668 101.062 15.1268 100.822 15.4601C100.595 15.7935 100.482 16.1668 100.482 16.5801ZM117.983 22.1601C117.596 22.1601 117.31 22.0868 117.123 21.9401C116.936 21.7935 116.843 21.5935 116.843 21.3401L116.983 20.6801C116.876 20.8535 116.696 21.0601 116.443 21.3001C116.19 21.5268 115.856 21.7335 115.443 21.9201C115.03 22.0935 114.53 22.1801 113.943 22.1801C113.316 22.1801 112.723 22.0535 112.163 21.8001C111.616 21.5335 111.13 21.1735 110.703 20.7201C110.29 20.2535 109.956 19.7268 109.703 19.1401C109.463 18.5401 109.343 17.9001 109.343 17.2201C109.343 16.5668 109.463 15.9535 109.703 15.3801C109.956 14.7935 110.296 14.2735 110.723 13.8201C111.15 13.3668 111.636 13.0135 112.183 12.7601C112.743 12.4935 113.33 12.3601 113.943 12.3601C114.49 12.3601 114.95 12.4335 115.323 12.5801C115.71 12.7268 116.036 12.9135 116.303 13.1401C116.57 13.3535 116.79 13.5801 116.963 13.8201L116.843 13.2401C116.843 12.9468 116.936 12.7268 117.123 12.5801C117.31 12.4201 117.603 12.3401 118.003 12.3401C118.376 12.3401 118.643 12.4001 118.803 12.5201C118.963 12.6268 119.063 12.7801 119.103 12.9801C119.143 13.1668 119.163 13.3801 119.163 13.6201V20.9401C119.163 21.1668 119.143 21.3735 119.103 21.5601C119.063 21.7468 118.956 21.8935 118.783 22.0001C118.623 22.1068 118.356 22.1601 117.983 22.1601ZM114.303 19.8401C114.756 19.8401 115.163 19.7268 115.523 19.5001C115.883 19.2735 116.17 18.9668 116.383 18.5801C116.61 18.1801 116.723 17.7401 116.723 17.2601C116.723 16.7401 116.61 16.2868 116.383 15.9001C116.156 15.5135 115.856 15.2135 115.483 15.0001C115.123 14.7735 114.716 14.6601 114.263 14.6601C113.77 14.6601 113.33 14.7801 112.943 15.0201C112.556 15.2468 112.25 15.5601 112.023 15.9601C111.81 16.3468 111.703 16.7868 111.703 17.2801C111.703 17.7601 111.816 18.1935 112.043 18.5801C112.27 18.9668 112.576 19.2735 112.963 19.5001C113.363 19.7268 113.81 19.8401 114.303 19.8401ZM122.93 22.1801C122.57 22.1801 122.303 22.1268 122.13 22.0201C121.97 21.9135 121.87 21.7668 121.83 21.5801C121.79 21.3935 121.77 21.1935 121.77 20.9801V13.5001C121.77 13.2868 121.79 13.0935 121.83 12.9201C121.87 12.7468 121.976 12.6068 122.15 12.5001C122.323 12.3935 122.596 12.3401 122.97 12.3401C123.356 12.3401 123.636 12.4201 123.81 12.5801C123.996 12.7401 124.09 12.9935 124.09 13.3401L123.91 13.9001C123.976 13.7535 124.09 13.5935 124.25 13.4201C124.41 13.2468 124.603 13.0735 124.83 12.9001C125.07 12.7268 125.336 12.5868 125.63 12.4801C125.923 12.3735 126.23 12.3201 126.55 12.3201C126.99 12.3201 127.39 12.3935 127.75 12.5401C128.123 12.6868 128.45 12.9001 128.73 13.1801C129.023 13.4601 129.276 13.8001 129.49 14.2001C129.716 13.8535 129.97 13.5401 130.25 13.2601C130.53 12.9668 130.856 12.7401 131.23 12.5801C131.603 12.4068 132.023 12.3201 132.49 12.3201C133.263 12.3201 133.91 12.5135 134.43 12.9001C134.963 13.2868 135.363 13.8401 135.63 14.5601C135.91 15.2668 136.05 16.1135 136.05 17.1001V20.9801C136.05 21.2068 136.023 21.4135 135.97 21.6001C135.93 21.7735 135.823 21.9135 135.65 22.0201C135.49 22.1268 135.223 22.1801 134.85 22.1801C134.476 22.1801 134.203 22.1201 134.03 22.0001C133.856 21.8935 133.75 21.7535 133.71 21.5801C133.67 21.3935 133.65 21.1868 133.65 20.9601V17.0801C133.65 16.5868 133.59 16.1601 133.47 15.8001C133.35 15.4401 133.17 15.1601 132.93 14.9601C132.703 14.7601 132.403 14.6601 132.03 14.6601C131.63 14.6601 131.283 14.7601 130.99 14.9601C130.71 15.1468 130.49 15.4201 130.33 15.7801C130.17 16.1401 130.09 16.5801 130.09 17.1001V21.0001C130.09 21.2268 130.056 21.4401 129.99 21.6401C129.923 21.8268 129.79 21.9668 129.59 22.0601C129.403 22.1668 129.13 22.2068 128.77 22.1801C128.436 22.1668 128.19 22.1001 128.03 21.9801C127.883 21.8601 127.79 21.7135 127.75 21.5401C127.723 21.3535 127.71 21.1601 127.71 20.9601V17.0801C127.71 16.5868 127.65 16.1601 127.53 15.8001C127.41 15.4268 127.23 15.1468 126.99 14.9601C126.763 14.7601 126.456 14.6601 126.07 14.6601C125.656 14.6601 125.303 14.7668 125.01 14.9801C124.73 15.1935 124.516 15.4801 124.37 15.8401C124.223 16.2001 124.15 16.6135 124.15 17.0801V21.0001C124.15 21.2135 124.123 21.4135 124.07 21.6001C124.03 21.7868 123.923 21.9268 123.75 22.0201C123.59 22.1268 123.316 22.1801 122.93 22.1801ZM45.36 44.1801C44.9867 44.1801 44.7133 44.1268 44.54 44.0201C44.3667 43.9135 44.26 43.7668 44.22 43.5801C44.18 43.3801 44.16 43.1735 44.16 42.9601V31.4201C44.16 31.2068 44.18 31.0135 44.22 30.8401C44.2733 30.6535 44.3867 30.5068 44.56 30.4001C44.7333 30.2801 45.0067 30.2201 45.38 30.2201H49.62C50.2067 30.2201 50.78 30.3201 51.34 30.5201C51.9 30.7201 52.4 31.0201 52.84 31.4201C53.2933 31.8201 53.6467 32.3135 53.9 32.9001C54.1667 33.4868 54.3 34.1735 54.3 34.9601C54.3 35.7335 54.1667 36.4135 53.9 37.0001C53.6467 37.5735 53.2933 38.0601 52.84 38.4601C52.3867 38.8601 51.88 39.1601 51.32 39.3601C50.7733 39.5601 50.2 39.6601 49.6 39.6601H46.58V42.9801C46.58 43.1935 46.5533 43.3935 46.5 43.5801C46.46 43.7668 46.3533 43.9135 46.18 44.0201C46.02 44.1268 45.7467 44.1801 45.36 44.1801ZM46.58 37.2201H49.62C50.0333 37.2201 50.4067 37.1401 50.74 36.9801C51.0867 36.8068 51.3667 36.5535 51.58 36.2201C51.7933 35.8735 51.9 35.4401 51.9 34.9201C51.9 34.4535 51.8 34.0535 51.6 33.7201C51.4133 33.3735 51.1467 33.1068 50.8 32.9201C50.4667 32.7335 50.0667 32.6401 49.6 32.6401H46.58V37.2201ZM64.8127 44.1601C64.426 44.1601 64.1393 44.0868 63.9527 43.9401C63.766 43.7935 63.6727 43.5935 63.6727 43.3401L63.8127 42.6801C63.706 42.8535 63.526 43.0601 63.2727 43.3001C63.0193 43.5268 62.686 43.7335 62.2727 43.9201C61.8593 44.0935 61.3593 44.1801 60.7727 44.1801C60.146 44.1801 59.5527 44.0535 58.9927 43.8001C58.446 43.5335 57.9593 43.1735 57.5327 42.7201C57.1193 42.2535 56.786 41.7268 56.5327 41.1401C56.2927 40.5401 56.1727 39.9001 56.1727 39.2201C56.1727 38.5668 56.2927 37.9535 56.5327 37.3801C56.786 36.7935 57.126 36.2735 57.5527 35.8201C57.9793 35.3668 58.466 35.0135 59.0127 34.7601C59.5727 34.4935 60.1593 34.3601 60.7727 34.3601C61.3193 34.3601 61.7793 34.4335 62.1527 34.5801C62.5393 34.7268 62.866 34.9135 63.1327 35.1401C63.3993 35.3535 63.6193 35.5801 63.7927 35.8201L63.6727 35.2401C63.6727 34.9468 63.766 34.7268 63.9527 34.5801C64.1393 34.4201 64.4327 34.3401 64.8327 34.3401C65.206 34.3401 65.4727 34.4001 65.6327 34.5201C65.7927 34.6268 65.8927 34.7801 65.9327 34.9801C65.9727 35.1668 65.9927 35.3801 65.9927 35.6201V42.9401C65.9927 43.1668 65.9727 43.3735 65.9327 43.5601C65.8927 43.7468 65.786 43.8935 65.6127 44.0001C65.4527 44.1068 65.186 44.1601 64.8127 44.1601ZM61.1327 41.8401C61.586 41.8401 61.9927 41.7268 62.3527 41.5001C62.7127 41.2735 62.9993 40.9668 63.2127 40.5801C63.4393 40.1801 63.5527 39.7401 63.5527 39.2601C63.5527 38.7401 63.4393 38.2868 63.2127 37.9001C62.986 37.5135 62.686 37.2135 62.3127 37.0001C61.9527 36.7735 61.546 36.6601 61.0927 36.6601C60.5993 36.6601 60.1593 36.7801 59.7727 37.0201C59.386 37.2468 59.0793 37.5601 58.8527 37.9601C58.6393 38.3468 58.5327 38.7868 58.5327 39.2801C58.5327 39.7601 58.646 40.1935 58.8727 40.5801C59.0993 40.9668 59.406 41.2735 59.7927 41.5001C60.1927 41.7268 60.6393 41.8401 61.1327 41.8401ZM69.7794 44.2001C69.4194 44.2001 69.1527 44.1401 68.9794 44.0201C68.8194 43.9135 68.7194 43.7668 68.6794 43.5801C68.6394 43.3935 68.6194 43.1868 68.6194 42.9601V35.5401C68.6194 35.3001 68.6394 35.0935 68.6794 34.9201C68.7194 34.7335 68.8194 34.5935 68.9794 34.5001C69.1527 34.3935 69.426 34.3401 69.7994 34.3401C70.1594 34.3401 70.4194 34.3868 70.5794 34.4801C70.7527 34.5735 70.8594 34.6935 70.8994 34.8401C70.9527 34.9735 70.9794 35.1068 70.9794 35.2401L70.8194 35.6001C70.886 35.4935 70.9794 35.3668 71.0994 35.2201C71.2194 35.0601 71.3794 34.9068 71.5794 34.7601C71.7794 34.6001 72.0194 34.4735 72.2994 34.3801C72.5794 34.2735 72.9127 34.2201 73.2994 34.2201C73.4594 34.2201 73.626 34.2401 73.7994 34.2801C73.986 34.3068 74.166 34.3535 74.3394 34.4201C74.526 34.4735 74.6927 34.5468 74.8394 34.6401C74.986 34.7335 75.0994 34.8468 75.1794 34.9801C75.2594 35.1001 75.2994 35.2401 75.2994 35.4001C75.2994 35.8268 75.1927 36.1868 74.9794 36.4801C74.766 36.7735 74.5127 36.9201 74.2194 36.9201C74.0194 36.9201 73.8727 36.9001 73.7794 36.8601C73.686 36.8201 73.606 36.7735 73.5394 36.7201C73.486 36.6668 73.3994 36.6201 73.2794 36.5801C73.1727 36.5401 72.9994 36.5201 72.7594 36.5201C72.5594 36.5201 72.3527 36.5535 72.1394 36.6201C71.9394 36.6868 71.7527 36.7868 71.5794 36.9201C71.406 37.0535 71.266 37.2268 71.1594 37.4401C71.0527 37.6401 70.9994 37.8735 70.9994 38.1401V43.0001C70.9994 43.2268 70.9794 43.4335 70.9394 43.6201C70.8994 43.7935 70.7927 43.9335 70.6194 44.0401C70.446 44.1468 70.166 44.2001 69.7794 44.2001ZM84.8994 44.1601C84.5127 44.1601 84.226 44.0868 84.0394 43.9401C83.8527 43.7935 83.7594 43.5935 83.7594 43.3401L83.8994 42.6801C83.7927 42.8535 83.6127 43.0601 83.3594 43.3001C83.106 43.5268 82.7727 43.7335 82.3594 43.9201C81.946 44.0935 81.446 44.1801 80.8594 44.1801C80.2327 44.1801 79.6394 44.0535 79.0794 43.8001C78.5327 43.5335 78.046 43.1735 77.6194 42.7201C77.206 42.2535 76.8727 41.7268 76.6194 41.1401C76.3794 40.5401 76.2594 39.9001 76.2594 39.2201C76.2594 38.5668 76.3794 37.9535 76.6194 37.3801C76.8727 36.7935 77.2127 36.2735 77.6394 35.8201C78.066 35.3668 78.5527 35.0135 79.0994 34.7601C79.6594 34.4935 80.246 34.3601 80.8594 34.3601C81.406 34.3601 81.866 34.4335 82.2394 34.5801C82.626 34.7268 82.9527 34.9135 83.2194 35.1401C83.486 35.3535 83.706 35.5801 83.8794 35.8201L83.7594 35.2401C83.7594 34.9468 83.8527 34.7268 84.0394 34.5801C84.226 34.4201 84.5194 34.3401 84.9194 34.3401C85.2927 34.3401 85.5594 34.4001 85.7194 34.5201C85.8794 34.6268 85.9794 34.7801 86.0194 34.9801C86.0594 35.1668 86.0794 35.3801 86.0794 35.6201V42.9401C86.0794 43.1668 86.0594 43.3735 86.0194 43.5601C85.9794 43.7468 85.8727 43.8935 85.6994 44.0001C85.5394 44.1068 85.2727 44.1601 84.8994 44.1601ZM81.2194 41.8401C81.6727 41.8401 82.0794 41.7268 82.4394 41.5001C82.7994 41.2735 83.086 40.9668 83.2994 40.5801C83.526 40.1801 83.6394 39.7401 83.6394 39.2601C83.6394 38.7401 83.526 38.2868 83.2994 37.9001C83.0727 37.5135 82.7727 37.2135 82.3994 37.0001C82.0394 36.7735 81.6327 36.6601 81.1794 36.6601C80.686 36.6601 80.246 36.7801 79.8594 37.0201C79.4727 37.2468 79.166 37.5601 78.9394 37.9601C78.726 38.3468 78.6194 38.7868 78.6194 39.2801C78.6194 39.7601 78.7327 40.1935 78.9594 40.5801C79.186 40.9668 79.4927 41.2735 79.8794 41.5001C80.2794 41.7268 80.726 41.8401 81.2194 41.8401ZM92.9261 44.1801C92.3128 44.1801 91.7328 44.0535 91.1861 43.8001C90.6394 43.5468 90.1594 43.2001 89.7461 42.7601C89.3328 42.3068 89.0061 41.7801 88.7661 41.1801C88.5261 40.5668 88.4061 39.9135 88.4061 39.2201C88.4061 38.5535 88.5261 37.9268 88.7661 37.3401C89.0061 36.7401 89.3328 36.2201 89.7461 35.7801C90.1728 35.3268 90.6594 34.9735 91.2061 34.7201C91.7528 34.4668 92.3261 34.3401 92.9261 34.3401C93.5661 34.3401 94.1394 34.4668 94.6461 34.7201C95.1528 34.9735 95.5794 35.3268 95.9261 35.7801C96.2861 36.2201 96.5594 36.7401 96.7461 37.3401C96.9328 37.9268 97.0328 38.5601 97.0461 39.2401C97.0461 39.9201 96.9528 40.5601 96.7661 41.1601C96.5928 41.7468 96.3261 42.2668 95.9661 42.7201C95.6194 43.1735 95.1861 43.5335 94.6661 43.8001C94.1594 44.0535 93.5794 44.1801 92.9261 44.1801ZM93.2461 41.8401C93.7128 41.8401 94.1261 41.7335 94.4861 41.5201C94.8594 41.2935 95.1528 40.9868 95.3661 40.6001C95.5928 40.2135 95.7061 39.7735 95.7061 39.2801C95.7061 38.7735 95.5928 38.3268 95.3661 37.9401C95.1528 37.5535 94.8594 37.2468 94.4861 37.0201C94.1261 36.7935 93.7128 36.6801 93.2461 36.6801C92.7794 36.6801 92.3594 36.7935 91.9861 37.0201C91.6128 37.2335 91.3128 37.5401 91.0861 37.9401C90.8728 38.3268 90.7661 38.7735 90.7661 39.2801C90.7661 39.7735 90.8728 40.2135 91.0861 40.6001C91.3128 40.9868 91.6128 41.2935 91.9861 41.5201C92.3728 41.7335 92.7928 41.8401 93.2461 41.8401ZM96.9461 44.1801C96.5728 44.1801 96.2994 44.1201 96.1261 44.0001C95.9528 43.8668 95.8394 43.6601 95.7861 43.3801V31.0601C95.7861 30.8335 95.7994 30.6335 95.8261 30.4601C95.8661 30.2735 95.9661 30.1268 96.1261 30.0201C96.2994 29.9001 96.5661 29.8401 96.9261 29.8401C97.3128 29.8401 97.5861 29.8935 97.7461 30.0001C97.9061 30.1068 98.0061 30.2535 98.0461 30.4401C98.0994 30.6135 98.1261 30.8135 98.1261 31.0401V42.9601C98.1261 43.1868 98.1061 43.3935 98.0661 43.5801C98.0261 43.7668 97.9194 43.9135 97.7461 44.0201C97.5861 44.1268 97.3194 44.1801 96.9461 44.1801ZM102.07 44.2001C101.71 44.2001 101.443 44.1401 101.27 44.0201C101.097 43.9135 100.99 43.7735 100.95 43.6001C100.91 43.4135 100.89 43.2068 100.89 42.9801V35.5401C100.89 35.3268 100.91 35.1335 100.95 34.9601C101.003 34.7735 101.11 34.6268 101.27 34.5201C101.443 34.4135 101.717 34.3601 102.09 34.3601C102.463 34.3601 102.73 34.4135 102.89 34.5201C103.063 34.6268 103.17 34.7735 103.21 34.9601C103.25 35.1468 103.27 35.3535 103.27 35.5801V43.0001C103.27 43.2268 103.25 43.4335 103.21 43.6201C103.17 43.7935 103.063 43.9335 102.89 44.0401C102.73 44.1468 102.457 44.2001 102.07 44.2001ZM102.07 32.4201C101.683 32.4201 101.397 32.3668 101.21 32.2601C101.037 32.1401 100.923 31.9801 100.87 31.7801C100.83 31.5801 100.81 31.3601 100.81 31.1201C100.81 30.8668 100.83 30.6468 100.87 30.4601C100.923 30.2735 101.043 30.1268 101.23 30.0201C101.417 29.9001 101.703 29.8401 102.09 29.8401C102.49 29.8401 102.777 29.9001 102.95 30.0201C103.123 30.1401 103.237 30.3001 103.29 30.5001C103.343 30.6868 103.37 30.9068 103.37 31.1601C103.37 31.3868 103.343 31.6001 103.29 31.8001C103.237 32.0001 103.123 32.1535 102.95 32.2601C102.777 32.3668 102.483 32.4201 102.07 32.4201ZM109.478 44.3201C109.131 44.3201 108.765 44.2801 108.378 44.2001C107.991 44.1335 107.618 44.0335 107.258 43.9001C106.898 43.7535 106.585 43.5868 106.318 43.4001C106.065 43.2001 105.905 42.9801 105.838 42.7401C105.785 42.6068 105.765 42.4801 105.778 42.3601C105.791 42.2268 105.831 42.0935 105.898 41.9601C105.965 41.8135 106.065 41.6668 106.198 41.5201C106.318 41.3735 106.438 41.2935 106.558 41.2801C106.691 41.2535 106.858 41.2935 107.058 41.4001C107.231 41.4668 107.418 41.5535 107.618 41.6601C107.831 41.7668 108.045 41.8735 108.258 41.9801C108.485 42.0868 108.711 42.1735 108.938 42.2401C109.178 42.3068 109.411 42.3401 109.638 42.3401C110.131 42.3401 110.525 42.2601 110.818 42.1001C111.111 41.9268 111.258 41.6868 111.258 41.3801C111.258 41.2068 111.211 41.0535 111.118 40.9201C111.025 40.7868 110.898 40.6801 110.738 40.6001C110.591 40.5068 110.411 40.4268 110.198 40.3601C109.998 40.2801 109.778 40.2135 109.538 40.1601C109.311 40.0935 109.071 40.0201 108.818 39.9401C108.485 39.8468 108.151 39.7335 107.818 39.6001C107.485 39.4668 107.185 39.2935 106.918 39.0801C106.665 38.8668 106.458 38.6001 106.298 38.2801C106.138 37.9601 106.058 37.5601 106.058 37.0801C106.058 36.4801 106.198 35.9735 106.478 35.5601C106.771 35.1335 107.191 34.8068 107.738 34.5801C108.285 34.3535 108.945 34.2401 109.718 34.2401C109.985 34.2401 110.238 34.2601 110.478 34.3001C110.731 34.3401 110.971 34.4001 111.198 34.4801C111.438 34.5468 111.665 34.6335 111.878 34.7401C112.105 34.8468 112.318 34.9668 112.518 35.1001C112.851 35.2868 113.025 35.5068 113.038 35.7601C113.051 36.0001 112.958 36.2601 112.758 36.5401C112.611 36.7268 112.465 36.8601 112.318 36.9401C112.171 37.0068 112.018 37.0068 111.858 36.9401C111.645 36.8335 111.411 36.7201 111.158 36.6001C110.918 36.4668 110.665 36.3535 110.398 36.2601C110.145 36.1668 109.878 36.1201 109.598 36.1201C109.331 36.1201 109.091 36.1601 108.878 36.2401C108.665 36.3201 108.505 36.4335 108.398 36.5801C108.291 36.7268 108.238 36.9001 108.238 37.1001C108.238 37.2868 108.291 37.4401 108.398 37.5601C108.505 37.6801 108.645 37.7801 108.818 37.8601C108.991 37.9401 109.198 38.0135 109.438 38.0801C109.678 38.1335 109.931 38.1868 110.198 38.2401C110.571 38.3201 110.951 38.4201 111.338 38.5401C111.725 38.6601 112.078 38.8268 112.398 39.0401C112.731 39.2535 112.998 39.5401 113.198 39.9001C113.398 40.2468 113.498 40.7001 113.498 41.2601C113.498 42.2335 113.138 42.9868 112.418 43.5201C111.711 44.0535 110.731 44.3201 109.478 44.3201ZM120.598 44.3201C119.731 44.3201 118.971 44.1801 118.318 43.9001C117.678 43.6201 117.138 43.2401 116.698 42.7601C116.271 42.2668 115.944 41.7201 115.718 41.1201C115.504 40.5068 115.398 39.8735 115.398 39.2201C115.398 38.2601 115.618 37.4068 116.058 36.6601C116.498 35.9135 117.104 35.3268 117.878 34.9001C118.664 34.4735 119.564 34.2601 120.578 34.2601C121.298 34.2601 121.931 34.3735 122.478 34.6001C123.024 34.8268 123.478 35.1268 123.838 35.5001C124.211 35.8601 124.491 36.2601 124.678 36.7001C124.878 37.1401 124.978 37.5668 124.978 37.9801C124.978 38.6868 124.804 39.2001 124.458 39.5201C124.124 39.8401 123.704 40.0001 123.198 40.0001H117.918C117.931 40.4535 118.071 40.8468 118.338 41.1801C118.618 41.5135 118.964 41.7735 119.378 41.9601C119.804 42.1335 120.238 42.2201 120.678 42.2201C121.011 42.2201 121.304 42.2001 121.558 42.1601C121.824 42.1201 122.051 42.0735 122.238 42.0201C122.424 41.9535 122.584 41.8868 122.718 41.8201C122.864 41.7535 122.998 41.6935 123.118 41.6401C123.238 41.5868 123.351 41.5535 123.458 41.5401C123.604 41.5268 123.751 41.5601 123.898 41.6401C124.044 41.7201 124.164 41.8601 124.258 42.0601C124.338 42.1935 124.391 42.3201 124.418 42.4401C124.458 42.5468 124.478 42.6535 124.478 42.7601C124.478 43.0268 124.318 43.2801 123.998 43.5201C123.678 43.7468 123.224 43.9335 122.638 44.0801C122.064 44.2401 121.384 44.3201 120.598 44.3201ZM117.918 38.5801H122.018C122.244 38.5801 122.418 38.5468 122.538 38.4801C122.658 38.4001 122.718 38.2401 122.718 38.0001C122.718 37.6935 122.624 37.4201 122.438 37.1801C122.251 36.9268 121.998 36.7335 121.678 36.6001C121.358 36.4535 120.984 36.3801 120.558 36.3801C120.064 36.3801 119.618 36.4801 119.218 36.6801C118.818 36.8668 118.498 37.1268 118.258 37.4601C118.031 37.7935 117.918 38.1668 117.918 38.5801Z" fill="#2D3691"/>
<line x1="32" y1="47.0001" x2="32" y2="7.00012" stroke="#2D3691" stroke-width="2"/>
</svg>
